<svg id="ac356da0-b129-4ca5-aecc-4700531dd101" data-name="Layer 1" xmlns="http://www.w3.org/2000/svg" width="1129" height="663" viewBox="0 0 1129 663">
    <title>docu_tree</title>
    <circle cx="321" cy="321" r="321" fill="#f2f2f2"/>
    <ellipse cx="559" cy="635.49998" rx="514" ry="27.50002" fill="#3f3d56"/>
    <ellipse cx="558" cy="627" rx="460" ry="22" opacity="0.2"/>
    <rect x="131" y="152.5" width="840" height="50" fill="#3f3d56"/>
    <path d="M166.5,727.3299A21.67009,21.67009,0,0,0,188.1701,749H984.8299A21.67009,21.67009,0,0,0,1006.5,727.3299V296h-840Z" transform="translate(-35.5 -118.5)" fill="#3f3d56"/>
    <path d="M984.8299,236H188.1701A21.67009,21.67009,0,0,0,166.5,257.6701V296h840V257.6701A21.67009,21.67009,0,0,0,984.8299,236Z" transform="translate(-35.5 -118.5)" fill="#3f3d56"/>
    <path d="M984.8299,236H188.1701A21.67009,21.67009,0,0,0,166.5,257.6701V296h840V257.6701A21.67009,21.67009,0,0,0,984.8299,236Z" transform="translate(-35.5 -118.5)" opacity="0.2"/>
    <circle cx="181" cy="147.5" r="13" fill="#3f3d56"/>
    <circle cx="217" cy="147.5" r="13" fill="#3f3d56"/>
    <circle cx="253" cy="147.5" r="13" fill="#3f3d56"/>
    <rect x="168" y="213.5" width="337" height="386" rx="5.33505" fill="#606060"/>
    <rect x="603" y="272.5" width="284" height="22" rx="5.47638" fill="#2e8555"/>
    <rect x="537" y="352.5" width="416" height="15" rx="5.47638" fill="#2e8555"/>
    <rect x="537" y="396.5" width="416" height="15" rx="5.47638" fill="#2e8555"/>
    <rect x="537" y="440.5" width="416" height="15" rx="5.47638" fill="#2e8555"/>
    <rect x="537" y="484.5" width="416" height="15" rx="5.47638" fill="#2e8555"/>
    <rect x="865" y="552.5" width="88" height="26" rx="7.02756" fill="#3ecc5f"/>
    <path d="M1088.60287,624.61594a30.11371,30.11371,0,0,0,3.98291-15.266c0-13.79652-8.54358-24.98081-19.08256-24.98081s-19.08256,11.18429-19.08256,24.98081a30.11411,30.11411,0,0,0,3.98291,15.266,31.248,31.248,0,0,0,0,30.53213,31.248,31.248,0,0,0,0,30.53208,31.248,31.248,0,0,0,0,30.53208,30.11408,30.11408,0,0,0-3.98291,15.266c0,13.79652,8.54353,24.98081,19.08256,24.98081s19.08256-11.18429,19.08256-24.98081a30.11368,30.11368,0,0,0-3.98291-15.266,31.248,31.248,0,0,0,0-30.53208,31.248,31.248,0,0,0,0-30.53208,31.248,31.248,0,0,0,0-30.53213Z" transform="translate(-35.5 -118.5)" fill="#3f3d56"/>
    <ellipse cx="1038.00321" cy="460.31783" rx="19.08256" ry="24.9808" fill="#3f3d56"/>
    <ellipse cx="1038.00321" cy="429.78574" rx="19.08256" ry="24.9808" fill="#3f3d56"/>
    <path d="M1144.93871,339.34489a91.61081,91.61081,0,0,0,7.10658-10.46092l-50.141-8.23491,54.22885.4033a91.566,91.566,0,0,0,1.74556-72.42605l-72.75449,37.74139,67.09658-49.32086a91.41255,91.41255,0,1,0-150.971,102.29805,91.45842,91.45842,0,0,0-10.42451,16.66946l65.0866,33.81447-69.40046-23.292a91.46011,91.46011,0,0,0,14.73837,85.83669,91.40575,91.40575,0,1,0,143.68892,0,91.41808,91.41808,0,0,0,0-113.02862Z" transform="translate(-35.5 -118.5)" fill="#3ecc5f" fill-rule="evenodd"/>
    <path d="M981.6885,395.8592a91.01343,91.01343,0,0,0,19.56129,56.51431,91.40575,91.40575,0,1,0,143.68892,0C1157.18982,436.82067,981.6885,385.60008,981.6885,395.8592Z" transform="translate(-35.5 -118.5)" opacity="0.1"/>
    <g id="test_tube" transform="translate(225.0 310.0),scale(6.5)">
        <path fill="#CCD6DD" d="M14.563 14.414L25.47 3.505l6.961 6.962-10.908 10.908z"/>
        <path fill="#68E090" d="M8.103 34.399C2.5 34 1.5 30.062 1.635 27.932c.322-5.07 15.601-16.551 15.601-16.551l12.517 1.93c.001 0-17.389 21.392-21.65 21.088z"/>
        <path fill="#8899A6" d="M32.326 3.708C29.405.787 26.104-.649 24.954.502c-.013.013-.022.031-.034.044-.006.006-.015.008-.021.014L2.295 23.164c-1.412 1.412-2.19 3.29-2.19 5.288 0 1.997.778 3.875 2.19 5.287 1.413 1.413 3.291 2.19 5.288 2.19 1.998 0 3.875-.777 5.287-2.189l22.604-22.604c.007-.007.009-.016.015-.023.013-.012.03-.02.043-.033 1.151-1.15-.285-4.451-3.206-7.372zM10.75 31.619c-.846.846-1.97 1.311-3.166 1.311s-2.321-.466-3.167-1.312c-.846-.846-1.312-1.97-1.312-3.167 0-1.196.466-2.32 1.311-3.166L25.412 4.29c.622 1.144 1.56 2.394 2.749 3.584 1.189 1.189 2.44 2.127 3.584 2.749L10.75 31.619z"/>
        <path fill="#17BF63" d="M29.196 13.144c-.058.379-2.627.751-5.691.343-3.063-.408-5.482-1.223-5.403-1.82.08-.597 2.627-.751 5.691-.343s5.495 1.224 5.403 1.82zM10.84 23.247c-.31.31-.813.31-1.123 0-.31-.31-.31-.813 0-1.123.31-.31.813-.31 1.123 0 .31.31.31.813 0 1.123zm3.317 2.615c-.507.507-1.328.506-1.835 0-.506-.506-.506-1.328 0-1.834.507-.507 1.328-.506 1.834 0 .507.506.508 1.327.001 1.834zm1.677-5.324c-.476.476-1.25.476-1.726 0s-.476-1.249 0-1.726c.476-.476 1.249-.477 1.725 0 .478.477.478 1.25.001 1.726zm-6.868 8.858c-.581.581-1.524.581-2.105 0-.582-.582-.581-1.524 0-2.105s1.523-.581 2.105 0c.581.581.582 1.523 0 2.105zm11.396-9.158c-.413.413-1.083.413-1.496 0-.413-.413-.412-1.083.001-1.496.414-.414 1.083-.414 1.496-.001.413.414.413 1.083-.001 1.497zm-1.207-4.288c-.27.27-.708.27-.979 0-.27-.27-.27-.708 0-.979.27-.27.708-.271.979 0 .27.271.27.709 0 .979z"/>
        <ellipse transform="rotate(-45.001 30.817 5.223)" fill="#CCD6DD" cx="30.817" cy="5.223" rx="1.184" ry="4.847"/>
    </g>
</svg>